<svg width="25" height="25" viewBox="0 0 25 25" fill="none" xmlns="http://www.w3.org/2000/svg">
<g clip-path="url(#clip0_36_880)">
<path d="M10.1562 1.5625C9.53465 1.5625 8.93851 1.80943 8.49897 2.24897C8.05943 2.68851 7.8125 3.28465 7.8125 3.90625V4.6875H2.34375C1.72215 4.6875 1.12601 4.93443 0.686468 5.37397C0.24693 5.81351 0 6.40965 0 7.03125L0 19.5312C0 20.1529 0.24693 20.749 0.686468 21.1885C1.12601 21.6281 1.72215 21.875 2.34375 21.875H22.6562C23.2779 21.875 23.874 21.6281 24.3135 21.1885C24.7531 20.749 25 20.1529 25 19.5312V7.03125C25 6.40965 24.7531 5.81351 24.3135 5.37397C23.874 4.93443 23.2779 4.6875 22.6562 4.6875H17.1875V3.90625C17.1875 3.28465 16.9406 2.68851 16.501 2.24897C16.0615 1.80943 15.4654 1.5625 14.8438 1.5625H10.1562ZM10.1562 3.125H14.8438C15.051 3.125 15.2497 3.20731 15.3962 3.35382C15.5427 3.50034 15.625 3.69905 15.625 3.90625V4.6875H9.375V3.90625C9.375 3.69905 9.45731 3.50034 9.60382 3.35382C9.75034 3.20731 9.94905 3.125 10.1562 3.125ZM13.1031 13.9281L23.4375 11.1734V19.5312C23.4375 19.7385 23.3552 19.9372 23.2087 20.0837C23.0622 20.2302 22.8635 20.3125 22.6562 20.3125H2.34375C2.13655 20.3125 1.93784 20.2302 1.79132 20.0837C1.64481 19.9372 1.5625 19.7385 1.5625 19.5312V11.1719L11.8969 13.9281C12.2921 14.0334 12.7079 14.0334 13.1031 13.9281ZM2.34375 6.25H22.6562C22.8635 6.25 23.0622 6.33231 23.2087 6.47882C23.3552 6.62534 23.4375 6.82405 23.4375 7.03125V9.55625L12.7016 12.4187C12.5695 12.454 12.4305 12.454 12.2984 12.4187L1.5625 9.55625V7.03125C1.5625 6.82405 1.64481 6.62534 1.79132 6.47882C1.93784 6.33231 2.13655 6.25 2.34375 6.25Z" fill="#F0F0F0"/>
</g>
<defs>
<clipPath id="clip0_36_880">
<rect width="25" height="25" fill="white"/>
</clipPath>
</defs>
</svg>
