<svg width="25" height="25" viewBox="0 0 25 25" fill="none" xmlns="http://www.w3.org/2000/svg">
<g clip-path="url(#clip0_36_884)">
<path fill-rule="evenodd" clip-rule="evenodd" d="M17.1875 23.4375C18.8451 23.4375 20.4348 22.779 21.6069 21.6069C22.779 20.4348 23.4375 18.8451 23.4375 17.1875C23.4375 15.5299 22.779 13.9402 21.6069 12.7681C20.4348 11.596 18.8451 10.9375 17.1875 10.9375C15.5299 10.9375 13.9402 11.596 12.7681 12.7681C11.596 13.9402 10.9375 15.5299 10.9375 17.1875C10.9375 18.8451 11.596 20.4348 12.7681 21.6069C13.9402 22.779 15.5299 23.4375 17.1875 23.4375ZM25 17.1875C25 19.2595 24.1769 21.2466 22.7118 22.7118C21.2466 24.1769 19.2595 25 17.1875 25C15.1155 25 13.1284 24.1769 11.6632 22.7118C10.1981 21.2466 9.375 19.2595 9.375 17.1875C9.375 15.1155 10.1981 13.1284 11.6632 11.6632C13.1284 10.1981 15.1155 9.375 17.1875 9.375C19.2595 9.375 21.2466 10.1981 22.7118 11.6632C24.1769 13.1284 25 15.1155 25 17.1875Z" fill="#9D9D9D"/>
<path d="M14.7469 18.6625C14.8204 19.5938 15.5563 20.3188 16.8766 20.4063V21.0938H17.4625V20.4016C18.8297 20.3063 19.6282 19.575 19.6282 18.5156C19.6282 17.55 19.0188 17.0531 17.925 16.7969L17.4625 16.6875V14.8125C18.05 14.8797 18.4219 15.2 18.511 15.6438H19.5391C19.4657 14.7453 18.6954 14.0438 17.4625 13.9672V13.2812H16.8766V13.9844C15.7094 14.0984 14.9157 14.8 14.9157 15.7937C14.9157 16.6719 15.5063 17.2312 16.4891 17.4594L16.8766 17.5547V19.5422C16.2766 19.4516 15.8782 19.1203 15.7891 18.6625H14.7469ZM16.8719 16.5469C16.2954 16.4141 15.9829 16.1406 15.9829 15.7312C15.9829 15.2719 16.3204 14.9281 16.8766 14.8281V16.5469H16.8719ZM17.5469 17.7125C18.2485 17.875 18.5704 18.1375 18.5704 18.6016C18.5704 19.1312 18.1688 19.4938 17.4625 19.5609V17.6938L17.5469 17.7125Z" fill="#9D9D9D"/>
<path d="M1.5625 0C1.1481 0 0.750671 0.16462 0.457646 0.457646C0.16462 0.750671 0 1.1481 0 1.5625L0 14.0625C0 14.4769 0.16462 14.8743 0.457646 15.1674C0.750671 15.4604 1.1481 15.625 1.5625 15.625H7.94219C8.03385 15.0865 8.16823 14.5656 8.34531 14.0625H4.6875C4.6875 13.2337 4.35826 12.4388 3.77221 11.8528C3.18616 11.2667 2.3913 10.9375 1.5625 10.9375V4.6875C2.3913 4.6875 3.18616 4.35826 3.77221 3.77221C4.35826 3.18616 4.6875 2.3913 4.6875 1.5625H20.3125C20.3125 2.3913 20.6417 3.18616 21.2278 3.77221C21.8138 4.35826 22.6087 4.6875 23.4375 4.6875V10.2C24.0312 10.7312 24.5578 11.3375 25 12.0031V1.5625C25 1.1481 24.8354 0.750671 24.5424 0.457646C24.2493 0.16462 23.8519 0 23.4375 0L1.5625 0Z" fill="#9D9D9D"/>
<path d="M15.6219 7.94216L15.625 7.81247C15.6247 7.27433 15.4854 6.7454 15.2206 6.27689C14.9559 5.80839 14.5746 5.41619 14.1138 5.13828C13.653 4.86038 13.1282 4.70618 12.5903 4.69064C12.0524 4.67509 11.5196 4.79871 11.0435 5.04954C10.5673 5.30036 10.1641 5.66988 9.8727 6.12231C9.58133 6.57475 9.41173 7.09476 9.38033 7.63198C9.34892 8.1692 9.45678 8.70542 9.69346 9.18872C9.93014 9.67202 10.2876 10.086 10.7313 10.3906C12.0819 9.1065 13.7845 8.25407 15.6219 7.94216Z" fill="#9D9D9D"/>
</g>
<defs>
<clipPath id="clip0_36_884">
<rect width="25" height="25" fill="white"/>
</clipPath>
</defs>
</svg>
