<svg width="27" height="33" viewBox="0 0 27 33" fill="none" xmlns="http://www.w3.org/2000/svg">
<g filter="url(#filter0_d_36_895)">
<path d="M9.59375 10.9375C9.38655 10.9375 9.18784 11.0198 9.04132 11.1663C8.89481 11.3128 8.8125 11.5115 8.8125 11.7188C8.8125 11.926 8.89481 12.1247 9.04132 12.2712C9.18784 12.4177 9.38655 12.5 9.59375 12.5H17.4062C17.6135 12.5 17.8122 12.4177 17.9587 12.2712C18.1052 12.1247 18.1875 11.926 18.1875 11.7188C18.1875 11.5115 18.1052 11.3128 17.9587 11.1663C17.8122 11.0198 17.6135 10.9375 17.4062 10.9375H9.59375ZM8.8125 14.8438C8.8125 14.6365 8.89481 14.4378 9.04132 14.2913C9.18784 14.1448 9.38655 14.0625 9.59375 14.0625H17.4062C17.6135 14.0625 17.8122 14.1448 17.9587 14.2913C18.1052 14.4378 18.1875 14.6365 18.1875 14.8438C18.1875 15.051 18.1052 15.2497 17.9587 15.3962C17.8122 15.5427 17.6135 15.625 17.4062 15.625H9.59375C9.38655 15.625 9.18784 15.5427 9.04132 15.3962C8.89481 15.2497 8.8125 15.051 8.8125 14.8438ZM8.8125 17.9688C8.8125 17.7615 8.89481 17.5628 9.04132 17.4163C9.18784 17.2698 9.38655 17.1875 9.59375 17.1875H12.7188C12.926 17.1875 13.1247 17.2698 13.2712 17.4163C13.4177 17.5628 13.5 17.7615 13.5 17.9688C13.5 18.176 13.4177 18.3747 13.2712 18.5212C13.1247 18.6677 12.926 18.75 12.7188 18.75H9.59375C9.38655 18.75 9.18784 18.6677 9.04132 18.5212C8.89481 18.3747 8.8125 18.176 8.8125 17.9688Z" fill="#9D9D9D"/>
<path d="M15.8438 0H7.25C6.4212 0 5.62634 0.32924 5.04029 0.915291C4.45424 1.50134 4.125 2.2962 4.125 3.125V21.875C4.125 22.7038 4.45424 23.4987 5.04029 24.0847C5.62634 24.6708 6.4212 25 7.25 25H19.75C20.5788 25 21.3737 24.6708 21.9597 24.0847C22.5458 23.4987 22.875 22.7038 22.875 21.875V7.03125L15.8438 0ZM15.8438 1.5625V4.6875C15.8438 5.3091 16.0907 5.90524 16.5302 6.34478C16.9698 6.78432 17.5659 7.03125 18.1875 7.03125H21.3125V21.875C21.3125 22.2894 21.1479 22.6868 20.8549 22.9799C20.5618 23.2729 20.1644 23.4375 19.75 23.4375H7.25C6.8356 23.4375 6.43817 23.2729 6.14515 22.9799C5.85212 22.6868 5.6875 22.2894 5.6875 21.875V3.125C5.6875 2.7106 5.85212 2.31317 6.14515 2.02015C6.43817 1.72712 6.8356 1.5625 7.25 1.5625H15.8438Z" fill="#9D9D9D"/>
</g>
<defs>
<filter id="filter0_d_36_895" x="-3" y="0" width="33" height="33" filterUnits="userSpaceOnUse" color-interpolation-filters="sRGB">
<feFlood flood-opacity="0" result="BackgroundImageFix"/>
<feColorMatrix in="SourceAlpha" type="matrix" values="0 0 0 0 0 0 0 0 0 0 0 0 0 0 0 0 0 0 127 0" result="hardAlpha"/>
<feOffset dy="4"/>
<feGaussianBlur stdDeviation="2"/>
<feComposite in2="hardAlpha" operator="out"/>
<feColorMatrix type="matrix" values="0 0 0 0 0 0 0 0 0 0 0 0 0 0 0 0 0 0 0.25 0"/>
<feBlend mode="normal" in2="BackgroundImageFix" result="effect1_dropShadow_36_895"/>
<feBlend mode="normal" in="SourceGraphic" in2="effect1_dropShadow_36_895" result="shape"/>
</filter>
</defs>
</svg>
