<svg width="25" height="25" viewBox="0 0 25 25" fill="none" xmlns="http://www.w3.org/2000/svg">
<g clip-path="url(#clip0_36_891)">
<path d="M13.2813 1.59062L13.2813 12.1766L20.7656 19.6609C22.0947 18.1265 22.9705 16.2525 23.295 14.2487C23.6195 12.2448 23.38 10.1902 22.6032 8.31474C21.8264 6.43928 20.5431 4.81699 18.8967 3.62945C17.2504 2.44191 15.306 1.73596 13.2813 1.59062ZM12.5 25C9.18479 25 6.00537 23.683 3.66117 21.3388C1.31696 18.9946 0 15.8152 0 12.5C0 9.18479 1.31696 6.00537 3.66117 3.66117C6.00537 1.31696 9.18479 0 12.5 0C15.8152 0 18.9946 1.31696 21.3388 3.66117C23.683 6.00537 25 9.18479 25 12.5C25 15.8152 23.683 18.9946 21.3388 21.3388C18.9946 23.683 15.8152 25 12.5 25Z" fill="#9D9D9D"/>
</g>
<defs>
<clipPath id="clip0_36_891">
<rect width="25" height="25" fill="white"/>
</clipPath>
</defs>
</svg>
