<svg width="25" height="25" viewBox="0 0 25 25" fill="none" xmlns="http://www.w3.org/2000/svg">
<g clip-path="url(#clip0_36_900)">
<path d="M4.4781 22.6954C4.35622 23.3624 5.0406 23.8838 5.64372 23.5863L12.5031 20.1969L19.3609 23.5863C19.964 23.8838 20.6484 23.3624 20.5265 22.6969L19.2297 15.5905L24.7328 10.5484C25.2484 10.0767 24.9828 9.2143 24.2922 9.12115L16.639 8.07548L13.2265 1.57458C13.1615 1.4428 13.059 1.33146 12.9308 1.2535C12.8026 1.17554 12.654 1.13416 12.5023 1.13416C12.3506 1.13416 12.2021 1.17554 12.0739 1.2535C11.9457 1.33146 11.8431 1.4428 11.7781 1.57458L8.3656 8.07698L0.712471 9.12265C0.0234087 9.2158 -0.243779 10.0782 0.270284 10.5499L5.77497 15.592L4.4781 22.6984V22.6954ZM12.1422 18.5382L6.38278 21.3838L7.46716 15.4388C7.49326 15.3019 7.48366 15.161 7.43921 15.0286C7.39476 14.8961 7.31686 14.7764 7.21247 14.68L2.67185 10.5184L9.0031 9.653C9.13398 9.63336 9.25805 9.58382 9.3649 9.50853C9.47175 9.43324 9.55826 9.3344 9.61716 9.22031L12.5 3.72452L15.3859 9.22031C15.4448 9.3344 15.5313 9.43324 15.6382 9.50853C15.745 9.58382 15.8691 9.63336 16 9.653L22.3312 10.5169L17.7906 14.6785C17.686 14.775 17.6079 14.895 17.5635 15.0277C17.519 15.1604 17.5095 15.3017 17.5359 15.4388L18.6203 21.3838L12.8609 18.5382C12.7497 18.4826 12.6261 18.4536 12.5008 18.4536C12.3754 18.4536 12.2534 18.4826 12.1422 18.5382Z" fill="#9D9D9D"/>
</g>
<defs>
<clipPath id="clip0_36_900">
<rect width="25" height="24.0385" fill="white" transform="translate(0 0.384644)"/>
</clipPath>
</defs>
</svg>
